-
 
http://www.Speed. Cd       the fast  and The Hottest Private Tracker on the net 
http://www.Speed. Cd

Please Seed back to make the speed Faster!!
 ............ NFO .............
-
 
http://www.Speed. Cd[IMG]http://i.imgur.com/xJ5qfIc.jpg[/IMG]

IMDb									 : http://www.imdb.com/title/tt1291652/?ref_=fn_al_tt_1

General

Complete name                            : Easy.Money.2010.SWEDiSH.720p.BRRip.HC.XviD.AC3-JHD.avi
Format                                   : AVI
Format/Info                              : Audio Video Interleave
Format profile                           : OpenDML
File size                                : 3.00 GiB
Duration                                 : 2h 4mn
Overall bit rate                         : 3 454 Kbps
Writing application                      : VirtualDubMod 1.5.10.3 | www.virtualdub-fr.org || (build 2550/release)
Writing library                          : VirtualDubMod build 2550/release

Video
ID                                       : 0
Format                                   : MPEG-4 Visual
Format profile                           : Advanced Simple@L5
Format settings, BVOP                    : 2
Format settings, QPel                    : No
Format settings, GMC                     : No warppoints
Format settings, Matrix                  : Default (H.263)
Codec ID                                 : XVID
Codec ID/Hint                            : XviD
Duration                                 : 2h 4mn
Bit rate                                 : 2 995 Kbps
Width                                    : 1 280 pixels
Height                                   : 544 pixels
Display aspect ratio                     : 2.35:1
Frame rate                               : 24.000 fps
Color space                              : YUV
Chroma subsampling                       : 4:2:0
Bit depth                                : 8 bits
Scan type                                : Progressive
Compression mode                         : Lossy
Bits/(Pixel*Frame)                       : 0.179
Stream size                              : 2.60 GiB (87%)
Writing library                          : XviD 1.2.1 (UTC 2008-12-04)

Audio
ID                                       : 1
Format                                   : AC-3
Format/Info                              : Audio Coding 3
Mode extension                           : CM (complete main)
Format settings, Endianness              : Big
Codec ID                                 : 2000
Duration                                 : 2h 4mn
Bit rate mode                            : Constant
Bit rate                                 : 448 Kbps
Channel(s)                               : 6 channels
Channel positions                        : Front: L C R, Side: L R, LFE
Sampling rate                            : 48.0 KHz
Bit depth                                : 16 bits
Compression mode                         : Lossy
Stream size                              : 398 MiB (13%)
Alignment                                : Split accross interleaves
Interleave, duration                     : 42 ms (1.00 video frame)
Interleave, preload duration             : 500 ms


Sources

Snabba.Cash.2010.SWEDiSH.720p.BluRay.x264-iMSORNY	thx!
Easy.Money.2010.LIMITED.DVDRip.XviD-VH-PROD		thx!


Used blu ray for video and audio obviously and then took retail subs from DVD and retimed them to fit the blu ray. Enjoy!



SCREENS

[IMG]http://i.imgur.com/hIy0mqB.jpg[/IMG]

[IMG]http://i.imgur.com/Zjvr7lQ.jpg[/IMG]

[IMG]http://i.imgur.com/v5sqJ4Y.jpg[/IMG]

[IMG]http://i.imgur.com/YvrUvMA.jpg[/IMG]

[IMG]http://i.imgur.com/a4MBYjW.jpg[/IMG]